<svg width="24" height="24" viewBox="0 0 24 24" fill="none" xmlns="http://www.w3.org/2000/svg">
<path fill-rule="evenodd" clip-rule="evenodd" d="M12 22.5C14.7848 22.5 17.4555 21.3938 19.4246 19.4246C21.3938 17.4555 22.5 14.7848 22.5 12C22.5 9.21523 21.3938 6.54451 19.4246 4.57538C17.4555 2.60625 14.7848 1.5 12 1.5C9.21523 1.5 6.54451 2.60625 4.57538 4.57538C2.60625 6.54451 1.5 9.21523 1.5 12C1.5 14.7848 2.60625 17.4555 4.57538 19.4246C6.54451 21.3938 9.21523 22.5 12 22.5ZM12 24C15.1826 24 18.2348 22.7357 20.4853 20.4853C22.7357 18.2348 24 15.1826 24 12C24 8.8174 22.7357 5.76516 20.4853 3.51472C18.2348 1.26428 15.1826 0 12 0C8.8174 0 5.76516 1.26428 3.51472 3.51472C1.26428 5.76516 0 8.8174 0 12C0 15.1826 1.26428 18.2348 3.51472 20.4853C5.76516 22.7357 8.8174 24 12 24Z" fill="#828282"/>
<path fill-rule="evenodd" clip-rule="evenodd" d="M17.7797 6.2203C17.8495 6.28995 17.9049 6.3727 17.9427 6.4638C17.9805 6.5549 18 6.65257 18 6.7512C18 6.84983 17.9805 6.94749 17.9427 7.03859C17.9049 7.12969 17.8495 7.21244 17.7797 7.2821L7.2817 17.7801C7.1409 17.9209 6.94993 18 6.7508 18C6.55168 18 6.36071 17.9209 6.21991 17.7801C6.0791 17.6393 6 17.4483 6 17.2492C6 17.0501 6.0791 16.8591 6.21991 16.7183L16.7179 6.2203C16.7876 6.15047 16.8703 6.09506 16.9614 6.05726C17.0525 6.01946 17.1502 6 17.2488 6C17.3474 6 17.4451 6.01946 17.5362 6.05726C17.6273 6.09506 17.71 6.15047 17.7797 6.2203Z" fill="#828282"/>
<path fill-rule="evenodd" clip-rule="evenodd" d="M6.2203 6.2203C6.15047 6.28995 6.09506 6.3727 6.05726 6.4638C6.01946 6.5549 6 6.65257 6 6.7512C6 6.84983 6.01946 6.94749 6.05726 7.03859C6.09506 7.12969 6.15047 7.21244 6.2203 7.2821L16.7183 17.7801C16.8591 17.9209 17.0501 18 17.2492 18C17.4483 18 17.6393 17.9209 17.7801 17.7801C17.9209 17.6393 18 17.4483 18 17.2492C18 17.0501 17.9209 16.8591 17.7801 16.7183L7.2821 6.2203C7.21244 6.15047 7.12969 6.09506 7.03859 6.05726C6.94749 6.01946 6.84983 6 6.7512 6C6.65257 6 6.5549 6.01946 6.4638 6.05726C6.3727 6.09506 6.28995 6.15047 6.2203 6.2203Z" fill="#828282"/>
</svg>
