<svg width="40" height="40" viewBox="0 0 40 40" fill="none" xmlns="http://www.w3.org/2000/svg">
<circle cx="20" cy="20" r="20" fill="#63C7FF"/>
<path d="M29.1093 15.4735C28.9374 23.2406 23.9531 28.6438 16.3906 28.9815C13.2969 29.1504 11.0625 28.1373 9 26.9553C11.2344 27.2931 14.1562 26.4488 15.7031 25.098C13.4687 24.9291 12.0937 23.7471 11.4062 21.8898C12.0937 22.0586 12.7812 21.8898 13.2969 21.8898C11.2344 21.2144 9.85937 20.0324 9.6875 17.3308C10.2031 17.6685 10.8906 17.8374 11.5781 17.8374C10.0312 16.9931 9 13.7849 10.2031 11.7587C12.4375 14.1226 15.1875 16.1489 19.6562 16.4866C18.4531 11.7587 24.9844 9.22597 27.5625 12.4341C28.7656 12.2653 29.625 11.7587 30.4844 11.421C30.1406 12.603 29.4531 13.2784 28.5938 13.9538C29.4531 13.7849 30.3125 13.6161 31 13.2784C30.8281 14.1226 29.9687 14.798 29.1093 15.4735Z" fill="white"/>
</svg>
